<?xml version="1.0" encoding="utf-8"?>
<!-- Svg Vector Icons : http://www.onlinewebfonts.com/icon -->
<!DOCTYPE svg PUBLIC "-//W3C//DTD SVG 1.1//EN" "http://www.w3.org/Graphics/SVG/1.1/DTD/svg11.dtd">
<svg version="1.1" xmlns="http://www.w3.org/2000/svg" xmlns:xlink="http://www.w3.org/1999/xlink" x="0px" y="0px" viewBox="0 0 1000 1000" enable-background="new 0 0 1000 1000" xml:space="preserve">
<metadata> Svg Vector Icons : http://www.onlinewebfonts.com/icon </metadata>
<g><g><path style="fill:#EEEEEE;" d="M987.8,285.1c-38.2-91.9-100.6-171.7-130.1-268.8c-5.2-15.6-31.2-22.5-38.2-5.2C778,108.2,715.5,196.7,686,299c-5.2,19.1,20.8,38.2,34.7,20.8c20.8-26,45.1-46.8,69.4-71.1c-3.5,149.2,0,298.3-26,445.8c-13.9,79.8-33,170-90.2,230.7c-69.4,72.8-156.1,6.9-194.3-60.7c-33-59-90.2-313.9-204.7-225.5c-67.6,52-85,123.1-105.8,201.2c-5.2,22.5-13.9,43.4-24.3,62.4C105,977.2,53,855.8,51.2,826.3c-3.5-59,13.9-119.7,27.8-176.9c5.2-17.3-20.8-24.3-27.8-6.9c-31.2,81.5-74.6,220.3,0,291.4c65.9,60.7,121.4,20.8,147.4-50.3c17.3-46.8,83.3-307,159.6-185.6c50.3,79.8,64.2,175.2,124.9,249.8c43.4,52,121.4,64.2,182.1,38.2c72.8-33,104.1-130.1,123.1-199.5C835.2,612.9,835.2,425.6,830,247c41.6,27.8,88.5,53.8,135.3,71.1C984.4,323.3,994.8,299,987.8,285.1z M762.4,222.7c22.5-48.6,50.3-97.1,74.6-145.7c26,60.7,59,114.5,90.2,173.4c-36.4-22.5-71.1-48.6-111-53.8c-8.7-1.7-15.6,3.5-19.1,10.4C784.9,208.8,772.8,214,762.4,222.7z"/></g><g></g><g></g><g></g><g></g><g></g><g></g><g></g><g></g><g></g><g></g><g></g><g></g><g></g><g></g><g></g></g>
</svg>